<svg id="visual" viewBox="0 0 960 540" width="960" height="540" xmlns="http://www.w3.org/2000/svg" xmlns:xlink="http://www.w3.org/1999/xlink" version="1.1"><rect x="0" y="0" width="960" height="540" fill="#151515"></rect><defs><linearGradient id="grad1_0" x1="43.8%" y1="0%" x2="100%" y2="100%"><stop offset="14.444444444444446%" stop-color="#fbae3c" stop-opacity="1"></stop><stop offset="85.55555555555554%" stop-color="#fbae3c" stop-opacity="1"></stop></linearGradient></defs><defs><linearGradient id="grad1_1" x1="43.8%" y1="0%" x2="100%" y2="100%"><stop offset="14.444444444444446%" stop-color="#fbae3c" stop-opacity="1"></stop><stop offset="85.55555555555554%" stop-color="#bc8434" stop-opacity="1"></stop></linearGradient></defs><defs><linearGradient id="grad1_2" x1="43.8%" y1="0%" x2="100%" y2="100%"><stop offset="14.444444444444446%" stop-color="#805c2b" stop-opacity="1"></stop><stop offset="85.55555555555554%" stop-color="#bc8434" stop-opacity="1"></stop></linearGradient></defs><defs><linearGradient id="grad1_3" x1="43.8%" y1="0%" x2="100%" y2="100%"><stop offset="14.444444444444446%" stop-color="#805c2b" stop-opacity="1"></stop><stop offset="85.55555555555554%" stop-color="#483721" stop-opacity="1"></stop></linearGradient></defs><defs><linearGradient id="grad1_4" x1="43.8%" y1="0%" x2="100%" y2="100%"><stop offset="14.444444444444446%" stop-color="#151515" stop-opacity="1"></stop><stop offset="85.55555555555554%" stop-color="#483721" stop-opacity="1"></stop></linearGradient></defs><defs><linearGradient id="grad2_0" x1="0%" y1="0%" x2="56.3%" y2="100%"><stop offset="14.444444444444446%" stop-color="#fbae3c" stop-opacity="1"></stop><stop offset="85.55555555555554%" stop-color="#fbae3c" stop-opacity="1"></stop></linearGradient></defs><defs><linearGradient id="grad2_1" x1="0%" y1="0%" x2="56.3%" y2="100%"><stop offset="14.444444444444446%" stop-color="#bc8434" stop-opacity="1"></stop><stop offset="85.55555555555554%" stop-color="#fbae3c" stop-opacity="1"></stop></linearGradient></defs><defs><linearGradient id="grad2_2" x1="0%" y1="0%" x2="56.3%" y2="100%"><stop offset="14.444444444444446%" stop-color="#bc8434" stop-opacity="1"></stop><stop offset="85.55555555555554%" stop-color="#805c2b" stop-opacity="1"></stop></linearGradient></defs><defs><linearGradient id="grad2_3" x1="0%" y1="0%" x2="56.3%" y2="100%"><stop offset="14.444444444444446%" stop-color="#483721" stop-opacity="1"></stop><stop offset="85.55555555555554%" stop-color="#805c2b" stop-opacity="1"></stop></linearGradient></defs><defs><linearGradient id="grad2_4" x1="0%" y1="0%" x2="56.3%" y2="100%"><stop offset="14.444444444444446%" stop-color="#483721" stop-opacity="1"></stop><stop offset="85.55555555555554%" stop-color="#151515" stop-opacity="1"></stop></linearGradient></defs><g transform="translate(960, 0)"><path d="M0 486C-57.7 455.4 -115.5 424.7 -163 393.6C-210.6 362.4 -247.9 330.8 -299.1 299.1C-350.4 267.5 -415.5 235.8 -449 186C-482.5 136.1 -484.2 68.1 -486 0L0 0Z" fill="#2e251b"></path><path d="M0 388.8C-46.2 364.3 -92.4 339.8 -130.4 314.9C-168.4 289.9 -198.3 264.6 -239.3 239.3C-280.3 214 -332.4 188.7 -359.2 148.8C-386 108.9 -387.4 54.5 -388.8 0L0 0Z" fill="#634926"></path><path d="M0 291.6C-34.6 273.2 -69.3 254.8 -97.8 236.1C-126.3 217.5 -148.7 198.5 -179.5 179.5C-210.2 160.5 -249.3 141.5 -269.4 111.6C-289.5 81.7 -290.5 40.8 -291.6 0L0 0Z" fill="#9d6f30"></path><path d="M0 194.4C-23.1 182.1 -46.2 169.9 -65.2 157.4C-84.2 145 -99.1 132.3 -119.6 119.6C-140.1 107 -166.2 94.3 -179.6 74.4C-193 54.5 -193.7 27.2 -194.4 0L0 0Z" fill="#db9938"></path><path d="M0 97.2C-11.5 91.1 -23.1 84.9 -32.6 78.7C-42.1 72.5 -49.6 66.2 -59.8 59.8C-70.1 53.5 -83.1 47.2 -89.8 37.2C-96.5 27.2 -96.8 13.6 -97.2 0L0 0Z" fill="#fbae3c"></path></g><g transform="translate(0, 540)"><path d="M0 -486C68.3 -484.5 136.5 -483 186 -449C235.4 -415 266 -348.5 297 -297C327.9 -245.5 359.2 -208.9 390.8 -161.9C422.4 -114.9 454.2 -57.4 486 0L0 0Z" fill="#2e251b"></path><path d="M0 -388.8C54.6 -387.6 109.2 -386.4 148.8 -359.2C188.3 -332 212.8 -278.8 237.6 -237.6C262.4 -196.4 287.4 -167.1 312.6 -129.5C337.9 -91.9 363.3 -45.9 388.8 0L0 0Z" fill="#634926"></path><path d="M0 -291.6C41 -290.7 81.9 -289.8 111.6 -269.4C141.3 -249 159.6 -209.1 178.2 -178.2C196.8 -147.3 215.5 -125.3 234.5 -97.1C253.4 -68.9 272.5 -34.5 291.6 0L0 0Z" fill="#9d6f30"></path><path d="M0 -194.4C27.3 -193.8 54.6 -193.2 74.4 -179.6C94.2 -166 106.4 -139.4 118.8 -118.8C131.2 -98.2 143.7 -83.6 156.3 -64.8C168.9 -45.9 181.7 -23 194.4 0L0 0Z" fill="#db9938"></path><path d="M0 -97.2C13.7 -96.9 27.3 -96.6 37.2 -89.8C47.1 -83 53.2 -69.7 59.4 -59.4C65.6 -49.1 71.8 -41.8 78.2 -32.4C84.5 -23 90.8 -11.5 97.2 0L0 0Z" fill="#fbae3c"></path></g></svg>