<svg id="visual" viewBox="0 0 1200 540" width="1200" height="540" xmlns="http://www.w3.org/2000/svg" xmlns:xlink="http://www.w3.org/1999/xlink" version="1.1"><rect x="0" y="0" width="1200" height="540" fill="#fcbb5a"></rect><path d="M0 119L120 197L240 171L360 195L480 158L600 128L720 164L840 115L960 79L1080 166L1200 155L1200 541L1080 541L960 541L840 541L720 541L600 541L480 541L360 541L240 541L120 541L0 541Z" fill="#fcaf3c"></path><path d="M0 215L120 239L240 222L360 193L480 218L600 304L720 263L840 257L960 273L1080 189L1200 232L1200 541L1080 541L960 541L840 541L720 541L600 541L480 541L360 541L240 541L120 541L0 541Z" fill="#fb9d2c"></path><path d="M0 399L120 290L240 393L360 314L480 333L600 380L720 281L840 365L960 380L1080 374L1200 363L1200 541L1080 541L960 541L840 541L720 541L600 541L480 541L360 541L240 541L120 541L0 541Z" fill="#f98b1d"></path><path d="M0 474L120 459L240 402L360 445L480 377L600 481L720 427L840 470L960 405L1080 433L1200 421L1200 541L1080 541L960 541L840 541L720 541L600 541L480 541L360 541L240 541L120 541L0 541Z" fill="#f7770f"></path></svg>