<svg id="visual" viewBox="0 0 1400 540" width="1400" height="540" xmlns="http://www.w3.org/2000/svg" xmlns:xlink="http://www.w3.org/1999/xlink" version="1.1"><rect x="0" y="0" width="1400" height="540" fill="#fcbb5a"></rect><path d="M0 85L140 113L280 204L420 83L560 187L700 215L840 187L980 229L1120 127L1260 113L1400 196L1400 541L1260 541L1120 541L980 541L840 541L700 541L560 541L420 541L280 541L140 541L0 541Z" fill="#fcaf3c"></path><path d="M0 253L140 207L280 197L420 189L560 192L700 178L840 223L980 221L1120 282L1260 186L1400 268L1400 541L1260 541L1120 541L980 541L840 541L700 541L560 541L420 541L280 541L140 541L0 541Z" fill="#fb9d2c"></path><path d="M0 308L140 396L280 401L420 397L560 385L700 334L840 306L980 323L1120 316L1260 299L1400 398L1400 541L1260 541L1120 541L980 541L840 541L700 541L560 541L420 541L280 541L140 541L0 541Z" fill="#f98b1d"></path><path d="M0 432L140 422L280 414L420 432L560 432L700 403L840 456L980 477L1120 457L1260 390L1400 390L1400 541L1260 541L1120 541L980 541L840 541L700 541L560 541L420 541L280 541L140 541L0 541Z" fill="#f7770f"></path></svg>