<svg id="visual" viewBox="0 0 960 540" width="960" height="540" xmlns="http://www.w3.org/2000/svg" xmlns:xlink="http://www.w3.org/1999/xlink" version="1.1"><path d="M0 98L69 60L137 93L206 98L274 60L343 66L411 66L480 82L549 71L617 55L686 66L754 87L823 87L891 93L960 98L960 0L891 0L823 0L754 0L686 0L617 0L549 0L480 0L411 0L343 0L274 0L206 0L137 0L69 0L0 0Z" fill="#fcaf3c"></path><path d="M0 163L69 109L137 168L206 163L274 109L343 136L411 136L480 141L549 131L617 136L686 114L754 168L823 141L891 147L960 158L960 96L891 91L823 85L754 85L686 64L617 53L549 69L480 80L411 64L343 64L274 58L206 96L137 91L69 58L0 96Z" fill="#fca12d"></path><path d="M0 309L69 330L137 303L206 320L274 330L343 325L411 309L480 266L549 303L617 325L686 320L754 314L823 303L891 352L960 276L960 156L891 145L823 139L754 166L686 112L617 134L549 129L480 139L411 134L343 134L274 107L206 161L137 166L69 107L0 161Z" fill="#fd931e"></path><path d="M0 433L69 449L137 428L206 449L274 444L343 460L411 433L480 438L549 417L617 444L686 449L754 465L823 433L891 465L960 465L960 274L891 350L823 301L754 312L686 318L617 323L549 301L480 264L411 307L343 323L274 328L206 318L137 301L69 328L0 307Z" fill="#fe830e"></path><path d="M0 541L69 541L137 541L206 541L274 541L343 541L411 541L480 541L549 541L617 541L686 541L754 541L823 541L891 541L960 541L960 463L891 463L823 431L754 463L686 447L617 442L549 415L480 436L411 431L343 458L274 442L206 447L137 426L69 447L0 431Z" fill="#ff7200"></path></svg>