<svg id="visual" viewBox="0 0 700 44" width="700" height="44" xmlns="http://www.w3.org/2000/svg" xmlns:xlink="http://www.w3.org/1999/xlink" version="1.1"><rect x="0" y="0" width="700" height="44" fill="#f1f1f1"></rect><defs><linearGradient id="grad1_0" x1="93.7%" y1="0%" x2="100%" y2="100%"><stop offset="-268.18181818181813%" stop-color="#fbae3c" stop-opacity="1"></stop><stop offset="368.18181818181813%" stop-color="#fbae3c" stop-opacity="1"></stop></linearGradient></defs><defs><linearGradient id="grad1_1" x1="93.7%" y1="0%" x2="100%" y2="100%"><stop offset="-268.18181818181813%" stop-color="#fbae3c" stop-opacity="1"></stop><stop offset="368.18181818181813%" stop-color="#fec47b" stop-opacity="1"></stop></linearGradient></defs><defs><linearGradient id="grad1_2" x1="93.7%" y1="0%" x2="100%" y2="100%"><stop offset="-268.18181818181813%" stop-color="#fbdab6" stop-opacity="1"></stop><stop offset="368.18181818181813%" stop-color="#fec47b" stop-opacity="1"></stop></linearGradient></defs><defs><linearGradient id="grad1_3" x1="93.7%" y1="0%" x2="100%" y2="100%"><stop offset="-268.18181818181813%" stop-color="#fbdab6" stop-opacity="1"></stop><stop offset="368.18181818181813%" stop-color="#f1f1f1" stop-opacity="1"></stop></linearGradient></defs><defs><linearGradient id="grad2_0" x1="0%" y1="0%" x2="6.3%" y2="100%"><stop offset="-268.18181818181813%" stop-color="#fbae3c" stop-opacity="1"></stop><stop offset="368.18181818181813%" stop-color="#fbae3c" stop-opacity="1"></stop></linearGradient></defs><defs><linearGradient id="grad2_1" x1="0%" y1="0%" x2="6.3%" y2="100%"><stop offset="-268.18181818181813%" stop-color="#fec47b" stop-opacity="1"></stop><stop offset="368.18181818181813%" stop-color="#fbae3c" stop-opacity="1"></stop></linearGradient></defs><defs><linearGradient id="grad2_2" x1="0%" y1="0%" x2="6.3%" y2="100%"><stop offset="-268.18181818181813%" stop-color="#fec47b" stop-opacity="1"></stop><stop offset="368.18181818181813%" stop-color="#fbdab6" stop-opacity="1"></stop></linearGradient></defs><defs><linearGradient id="grad2_3" x1="0%" y1="0%" x2="6.3%" y2="100%"><stop offset="-268.18181818181813%" stop-color="#f1f1f1" stop-opacity="1"></stop><stop offset="368.18181818181813%" stop-color="#fbdab6" stop-opacity="1"></stop></linearGradient></defs><g transform="translate(700, 0)"><path d="M0 44C-8 43 -16 42 -22 38.1C-28 34.2 -32.2 27.3 -35.5 20.5C-38.9 13.7 -41.4 6.8 -44 0L0 0Z" fill="#f7e6d3"></path><path d="M0 33C-6 32.3 -12 31.5 -16.5 28.6C-21 25.6 -24.1 20.5 -26.6 15.4C-29.1 10.2 -31.1 5.1 -33 0L0 0Z" fill="#fecf99"></path><path d="M0 22C-4 21.5 -8 21 -11 19.1C-14 17.1 -16.1 13.7 -17.8 10.3C-19.4 6.8 -20.7 3.4 -22 0L0 0Z" fill="#fdb95d"></path><path d="M0 11C-2 10.8 -4 10.5 -5.5 9.5C-7 8.5 -8 6.8 -8.9 5.1C-9.7 3.4 -10.4 1.7 -11 0L0 0Z" fill="#fbae3c"></path></g><g transform="translate(0, 44)"><path d="M0 -44C7.1 -41.9 14.2 -39.8 21 -36.4C27.8 -33 34.3 -28.3 38.1 -22C41.9 -15.7 42.9 -7.9 44 0L0 0Z" fill="#f7e6d3"></path><path d="M0 -33C5.3 -31.4 10.6 -29.8 15.7 -27.3C20.9 -24.7 25.7 -21.2 28.6 -16.5C31.4 -11.8 32.2 -5.9 33 0L0 0Z" fill="#fecf99"></path><path d="M0 -22C3.5 -20.9 7.1 -19.9 10.5 -18.2C13.9 -16.5 17.2 -14.1 19.1 -11C20.9 -7.9 21.5 -3.9 22 0L0 0Z" fill="#fdb95d"></path><path d="M0 -11C1.8 -10.5 3.5 -9.9 5.2 -9.1C7 -8.2 8.6 -7.1 9.5 -5.5C10.5 -3.9 10.7 -2 11 0L0 0Z" fill="#fbae3c"></path></g></svg>