<svg id="visual" viewBox="0 0 960 540" width="960" height="540" xmlns="http://www.w3.org/2000/svg" xmlns:xlink="http://www.w3.org/1999/xlink" version="1.1"><rect x="0" y="0" width="960" height="540" fill="#151515"></rect><path d="M0 397L32 396.2C64 395.3 128 393.7 192 382.8C256 372 320 352 384 360.2C448 368.3 512 404.7 576 419C640 433.3 704 425.7 768 408.8C832 392 896 366 928 353L960 340L960 0L928 0C896 0 832 0 768 0C704 0 640 0 576 0C512 0 448 0 384 0C320 0 256 0 192 0C128 0 64 0 32 0L0 0Z" fill="#fcaf3c"></path><path d="M0 380L32 366.7C64 353.3 128 326.7 192 318C256 309.3 320 318.7 384 316.5C448 314.3 512 300.7 576 295.8C640 291 704 295 768 301.7C832 308.3 896 317.7 928 322.3L960 327L960 0L928 0C896 0 832 0 768 0C704 0 640 0 576 0C512 0 448 0 384 0C320 0 256 0 192 0C128 0 64 0 32 0L0 0Z" fill="#fba634"></path><path d="M0 249L32 247.5C64 246 128 243 192 240.8C256 238.7 320 237.3 384 250.2C448 263 512 290 576 291C640 292 704 267 768 256C832 245 896 248 928 249.5L960 251L960 0L928 0C896 0 832 0 768 0C704 0 640 0 576 0C512 0 448 0 384 0C320 0 256 0 192 0C128 0 64 0 32 0L0 0Z" fill="#fb9d2c"></path><path d="M0 269L32 255.2C64 241.3 128 213.7 192 199.8C256 186 320 186 384 186.2C448 186.3 512 186.7 576 190.2C640 193.7 704 200.3 768 200.3C832 200.3 896 193.7 928 190.3L960 187L960 0L928 0C896 0 832 0 768 0C704 0 640 0 576 0C512 0 448 0 384 0C320 0 256 0 192 0C128 0 64 0 32 0L0 0Z" fill="#fa9424"></path><path d="M0 139L32 146.8C64 154.7 128 170.3 192 178C256 185.7 320 185.3 384 186.7C448 188 512 191 576 185.2C640 179.3 704 164.7 768 155.2C832 145.7 896 141.3 928 139.2L960 137L960 0L928 0C896 0 832 0 768 0C704 0 640 0 576 0C512 0 448 0 384 0C320 0 256 0 192 0C128 0 64 0 32 0L0 0Z" fill="#f98b1d"></path><path d="M0 126L32 127.5C64 129 128 132 192 126.5C256 121 320 107 384 102.7C448 98.3 512 103.7 576 112C640 120.3 704 131.7 768 136.2C832 140.7 896 138.3 928 137.2L960 136L960 0L928 0C896 0 832 0 768 0C704 0 640 0 576 0C512 0 448 0 384 0C320 0 256 0 192 0C128 0 64 0 32 0L0 0Z" fill="#f88116"></path><path d="M0 83L32 84C64 85 128 87 192 82.5C256 78 320 67 384 63.5C448 60 512 64 576 64.8C640 65.7 704 63.3 768 63.2C832 63 896 65 928 66L960 67L960 0L928 0C896 0 832 0 768 0C704 0 640 0 576 0C512 0 448 0 384 0C320 0 256 0 192 0C128 0 64 0 32 0L0 0Z" fill="#f7770f"></path></svg>