<svg id="visual" viewBox="0 0 900 600" width="900" height="600" xmlns="http://www.w3.org/2000/svg" xmlns:xlink="http://www.w3.org/1999/xlink" version="1.1"><rect x="0" y="0" width="900" height="600" fill="#151515"></rect><path d="M0 398L30 410.7C60 423.3 120 448.7 180 461.7C240 474.7 300 475.3 360 475.5C420 475.7 480 475.3 540 462C600 448.7 660 422.3 720 408.3C780 394.3 840 392.7 870 391.8L900 391L900 0L870 0C840 0 780 0 720 0C660 0 600 0 540 0C480 0 420 0 360 0C300 0 240 0 180 0C120 0 60 0 30 0L0 0Z" fill="#fcaf3c"></path><path d="M0 349L30 340C60 331 120 313 180 312.2C240 311.3 300 327.7 360 342.3C420 357 480 370 540 361.8C600 353.7 660 324.3 720 308.5C780 292.7 840 290.3 870 289.2L900 288L900 0L870 0C840 0 780 0 720 0C660 0 600 0 540 0C480 0 420 0 360 0C300 0 240 0 180 0C120 0 60 0 30 0L0 0Z" fill="#fba230"></path><path d="M0 211L30 219.3C60 227.7 120 244.3 180 260C240 275.7 300 290.3 360 286.5C420 282.7 480 260.3 540 244.8C600 229.3 660 220.7 720 224.8C780 229 840 246 870 254.5L900 263L900 0L870 0C840 0 780 0 720 0C660 0 600 0 540 0C480 0 420 0 360 0C300 0 240 0 180 0C120 0 60 0 30 0L0 0Z" fill="#fa9424"></path><path d="M0 133L30 141.3C60 149.7 120 166.3 180 179.5C240 192.7 300 202.3 360 198.7C420 195 480 178 540 173.7C600 169.3 660 177.7 720 185C780 192.3 840 198.7 870 201.8L900 205L900 0L870 0C840 0 780 0 720 0C660 0 600 0 540 0C480 0 420 0 360 0C300 0 240 0 180 0C120 0 60 0 30 0L0 0Z" fill="#f98619"></path><path d="M0 130L30 118.8C60 107.7 120 85.3 180 82.7C240 80 300 97 360 103C420 109 480 104 540 105C600 106 660 113 720 107.7C780 102.3 840 84.7 870 75.8L900 67L900 0L870 0C840 0 780 0 720 0C660 0 600 0 540 0C480 0 420 0 360 0C300 0 240 0 180 0C120 0 60 0 30 0L0 0Z" fill="#f7770f"></path></svg>